:SAMPLES-PER-SECOND 30
:FULLY-SPECIFIED
:DEGREES
286
root  34.73083917 36.49008143 -14.92422209 8.172265053 -7.351922989 3.863005161
lowerback  -7.375040054 -2.198260069 -1.04685986
upperback  -4.260529995 -2.445559978 -2.779639959
thorax  -0.3437719941 -1.064219952 -2.44569993
lowerneck  -7.184830189 -11.66213799 -10.61260033
upperneck  16.64699936 -16.01009941 10.625
head  8.054180145 -7.293282509 3.57359004
lclavicle  0 -4.497500157e-015 -2.743230041e-014
lhumerus  -50.50709915 28.69879913 63.3125
lradius  -2.057401616e-006 -6.507048965e-006 31.48916435
lwrist  4.824992743e-007 -3.790274832e-007 -26.16680145
lhand  -4.393466388e-031 -36.51300049 -10.56379986
lfingers  90 7.125020027 -90
lthumb  94.61201501 -25.41511507 100.6453353
rclavicle  0 -4.497500157e-015 -2.743230041e-014
rhumerus  -68.74150085 -30.19560051 -34.56620407
rradius  -5.16745672e-007 2.214343908e-008 85.21040344
rwrist  -0.0001011603963 0.007538665552 -179.2359924
rhand  -1.769509249e-031 3.827460051 -5.019690037
rfingers  -90 -7.125020027 -90
rthumb  -83.93889238 -10.67694121 -60.18209951
rfemur  -12.71857357 16.49934196 12.67533493
rtibia  -1.408626199 -1.589541554 21.48606682
rfoot  0.2100619525 -23.19229698 -34.70175171
rtoes  3.859134806 19.6391223 -101.3488906
lfemur  -7.9719491 -16.85983086 -20.78404617
ltibia  2.418847561 -1.89909339 15.24665642
lfoot  1.095296979 -21.98755455 38.71802521
ltoes  -8.631680072 -18.11065572 -116.0280101
287
root  34.72995608 36.49419649 -14.92278632 8.18178463 -7.403973103 3.862392187
lowerback  -7.394809723 -2.176670074 -1.043949842
upperback  -4.255630016 -2.416919947 -2.775490046
thorax  -0.3267149925 -1.050140023 -2.441890001
lowerneck  -7.197450161 -11.6573 -10.58320045
upperneck  16.67440033 -16.00729942 10.60379982
head  8.060799599 -7.29117012 3.561949968
lclavicle  0 -4.497500157e-015 -2.743230041e-014
lhumerus  -50.47639847 28.71500015 63.33129883
lradius  -2.057401616e-006 -6.507048965e-006 31.51155281
lwrist  4.824992743e-007 -3.790274832e-007 -26.15875053
lhand  -4.394085241e-031 -36.52389908 -10.57190037
lfingers  90 7.125020027 -90
lthumb  94.61873304 -25.42262398 100.6576802
rclavicle  0 -4.497500157e-015 -2.743230041e-014
rhumerus  -68.40170288 -30.71350098 -34.99949646
rradius  -5.16745672e-007 2.214343908e-008 83.8042984
rwrist  -0.0001011603963 0.007538665552 -178.4349976
rhand  -1.769926406e-031 4.024260044 -4.685029984
rfingers  -90 -7.125020027 -90
rthumb  -83.71648115 -10.97522633 -59.95683681
rfemur  -12.72133446 16.50634766 12.66320324
rtibia  -1.40350318 -1.60642612 21.4598999
rfoot  0.2224596143 -23.21122742 -34.67812347
rtoes  3.854043097 19.64008413 -101.3337413
lfemur  -8.008612633 -16.8392868 -20.77366638
ltibia  2.391677618 -1.922053933 15.28219891
lfoot  1.071820378 -21.95196724 38.68254852
ltoes  -8.607581923 -18.12182121 -115.9505106
288
root  34.72896786 36.49679169 -14.92182964 8.22205925 -7.460789204 3.847423792
lowerback  -7.363669872 -2.160249949 -1.08052063
upperback  -4.249760151 -2.395539999 -2.763560057
thorax  -0.3349289894 -1.039459944 -2.406569958
lowerneck  -7.216710091 -11.65289974 -10.55379963
upperneck  16.70820045 -15.99819946 10.56579971
head  8.068473816 -7.290114403 3.545244455
lclavicle  0 -4.497500157e-015 -2.743230041e-014
lhumerus  -50.44409943 28.7147007 63.36750031
lradius  -2.057401616e-006 -6.507048965e-006 31.53032112
lwrist  4.824992743e-007 -3.790274832e-007 -26.13920021
lhand  -4.396552911e-031 -36.56729889 -10.55500031
lfingers  90 7.125020027 -90
lthumb  94.63550456 -25.4046042 100.7025729
rclavicle  0 -4.497500157e-015 -2.743230041e-014
rhumerus  -68.00260162 -30.78260231 -35.6689949
rradius  -5.16745672e-007 2.214343908e-008 82.48970032
rwrist  -0.0001011603963 0.007538665552 -177.9629974
rhand  -1.769389492e-031 3.769049883 -4.769139767
rfingers  -90 -7.125020027 -90
rthumb  -83.82763224 -10.8918451 -60.21578319
rfemur  -12.74668407 16.52353477 12.64783955
rtibia  -1.392573953 -1.652474165 21.40336227
rfoot  0.2382244617 -23.2765007 -34.66292953
rtoes  3.878572551 19.6354383 -101.4067299
lfemur  -8.102546692 -16.84462929 -20.72664261
ltibia  2.337536573 -1.946892381 15.36342621
lfoot  1.058497071 -21.92474937 38.67628479
ltoes  -8.61159404 -18.11996497 -115.9634103
289
root  34.72644476 36.49406133 -14.92151275 8.24420166 -7.506516933 3.855582952
lowerback  -7.376329899 -2.126499891 -1.035979867
upperback  -4.242360115 -2.353800058 -2.769560099
thorax  -0.3210299909 -1.019860029 -2.435460091
lowerneck  -7.227900028 -11.66880035 -10.56970024
upperneck  16.74970055 -16.02390099 10.59529877
head  8.091277122 -7.290304184 3.552783489
lclavicle  0 -4.497500157e-015 -2.743230041e-014
lhumerus  -50.35810089 28.65579987 63.42380142
lradius  -2.057401616e-006 -6.507048965e-006 31.5011673
lwrist  4.824992743e-007 -3.790274832e-007 -26.15259933
lhand  -4.392785322e-031 -36.50099945 -10.54769993
lfingers  90 7.125020027 -90
lthumb  94.60313379 -25.39963106 100.6311256
rclavicle  0 -4.497500157e-015 -2.743230041e-014
rhumerus  -67.65419769 -30.77980042 -36.3492012
rradius  -5.16745672e-007 2.214343908e-008 81.30180359
rwrist  -0.0001011603963 0.007538665552 -177.4649963
rhand  -0 4.070199966 -4.733369827
rfingers  -90 -7.125020027 -90
rthumb  -83.72876987 -10.93529911 -59.91642789
rfemur  -12.79306126 16.52317619 12.63311958
rtibia  -1.399870992 -1.663480282 21.42964745
rfoot  0.2368519306 -23.29117966 -34.62034607
rtoes  3.882666166 19.63465998 -101.4189123
lfemur  -8.068497658 -16.73077393 -20.74610138
ltibia  2.382503271 -1.896892548 15.27255249
lfoot  1.074507833 -21.98142242 38.69171906
ltoes  -8.628123115 -18.11230623 -116.016568
290
root  34.72426707 36.49551512 -14.92048849 8.253082275 -7.554448605 3.840956211
lowerback  -7.406310081 -2.097219944 -1.046340346
upperback  -4.24131012 -2.313580036 -2.758379936
thorax  -0.3010480106 -0.9995049834 -2.416409969
lowerneck  -7.246789932 -11.6736002 -10.60630035
upperneck  16.79439926 -16.02689743 10.59679985
head  8.113140106 -7.291929722 3.556930065
lclavicle  0 -4.497500157e-015 -2.743230041e-014
lhumerus  -50.32239914 28.63809967 63.48130035
lradius  -2.057401616e-006 -6.507048965e-006 31.49810028
lwrist  4.824992743e-007 -3.790274832e-007 -26.14900017
lhand  -4.391407539e-031 -36.47669983 -10.60540009
lfingers  90 7.125020027 -90
lthumb  94.60356775 -25.45724557 100.6101567
rclavicle  0 -4.497500157e-015 -2.743230041e-014
rhumerus  -67.23719788 -30.71360016 -37.02399445
rradius  -5.16745672e-007 2.214343908e-008 79.94499969
rwrist  -0.0001011603963 0.007538665552 -177.5529938
rhand  -0 3.684380054 -4.708909988
rfingers  -90 -7.125020027 -90
rthumb  -83.81974998 -10.94074755 -60.2932657
rfemur  -12.81742477 16.53111267 12.6387701
rtibia  -1.389297724 -1.665837288 21.44280052
rfoot  0.2316969484 -23.32484627 -34.59430313
rtoes  3.882701469 19.63465326 -101.4190174
lfemur  -8.024442673 -16.75449562 -20.74581528
ltibia  2.397137403 -1.893279672 15.2033987
lfoot  1.061042786 -21.93734169 38.75625229
ltoes  -8.566914585 -18.14057534 -115.819829
291
root  34.72131444 36.49463804 -14.91906324 8.239081383 -7.588068485 3.820497513
lowerback  -7.445169926 -2.067300081 -1.045049667
upperback  -4.25564003 -2.270829916 -2.761229992
thorax  -0.2931019962 -0.9772329926 -2.418260098
lowerneck  -7.21118021 -11.68080044 -10.65709972
upperneck  16.79840088 -16.04080009 10.65139961
head  8.119009972 -7.29708004 3.582319975
lclavicle  0 -4.497500157e-015 -2.743230041e-014
lhumerus  -50.29539871 28.66180038 63.49340057
lradius  -2.057401616e-006 -6.507048965e-006 31.4769001
lwrist  4.824992743e-007 -3.790274832e-007 -26.26740074
lhand  -4.390971405e-031 -36.46900177 -10.60270023
lfingers  90 7.125020027 -90
lthumb  94.59940586 -25.45479592 100.6016721
rclavicle  0 -4.497500157e-015 -2.743230041e-014
rhumerus  -66.81330109 -30.78029823 -37.58700562
rradius  -5.16745672e-007 2.214343908e-008 78.5164032
rwrist  -0.0001011603963 0.007538665552 -177.0890045
rhand  -1.769504725e-031 3.825269938 -5.097290039
rfingers  -90 -7.125020027 -90
rthumb  -83.97874277 -10.60948621 -60.19151198
rfemur  -12.80483913 16.57483864 12.66261005
rtibia  -1.376829505 -1.635214329 21.44122696
rfoot  0.2438309491 -23.29190254 -34.58307648
rtoes  3.874443094 19.63622256 -101.3944414
lfemur  -7.989044666 -16.76650238 -20.7281208
ltibia  2.393290997 -1.896848798 15.18623161
lfoot  1.053876877 -21.90866852 38.79190445
ltoes  -8.554536812 -18.14626147 -115.7800797
292
root  34.71460417 36.50348093 -14.91763498 8.25804615 -7.578206062 3.799139977
lowerback  -7.444190025 -2.04557991 -1.033549786
upperback  -4.259729862 -2.241650105 -2.776629925
thorax  -0.2979870141 -0.9625959992 -2.438509941
lowerneck  -7.152959824 -11.69209957 -10.67840004
upperneck  16.75399971 -16.06459999 10.71360016
head  8.104029655 -7.306920052 3.606159687
lclavicle  0 -4.497500157e-015 -2.743230041e-014
lhumerus  -50.22140121 28.60950089 63.53990173
lradius  -2.057401616e-006 -6.507048965e-006 31.44890022
lwrist  4.824992743e-007 -3.790274832e-007 -26.27050018
lhand  -0 -36.45040131 -10.60550022
lfingers  90 7.125020027 -90
lthumb  94.59130475 -25.45819728 100.5820529
rclavicle  0 -4.497500157e-015 -2.743230041e-014
rhumerus  -66.54920197 -30.92309761 -38.08860397
rradius  -5.16745672e-007 2.214343908e-008 77.38430023
rwrist  -0.0001011603963 0.007538665552 -176.2839966
rhand  -1.769468466e-031 3.807670116 -4.695040226
rfingers  -90 -7.125020027 -90
rthumb  -83.7797473 -10.95780014 -60.17068882
rfemur  -12.791399 16.62118912 12.69959259
rtibia  -1.364298344 -1.594673872 21.40727425
rfoot  0.2722026408 -23.21265221 -34.59934235
rtoes  3.869032132 19.63724889 -101.37834
lfemur  -8.040299416 -16.81996155 -20.68181038
ltibia  2.356598616 -1.921909809 15.24396229
lfoot  1.016686797 -21.86220741 38.72599411
ltoes  -8.575013574 -18.13684925 -115.8458441
293
root  34.70970214 36.49604076 -14.91679695 8.255955696 -7.567551136 3.795060635
lowerback  -7.477479935 -2.035429955 -1.032539606
upperback  -4.256189823 -2.226399899 -2.781589985
thorax  -0.2756690085 -0.9546890259 -2.444329977
lowerneck  -7.145689964 -11.70090008 -10.64760017
upperneck  16.74559975 -16.082201 10.72640038
head  8.105834961 -7.312059879 3.610289574
lclavicle  0 -4.497500157e-015 -2.743230041e-014
lhumerus  -50.15299988 28.60390091 63.55770111
lradius  -2.057401616e-006 -6.507048965e-006 31.42479897
lwrist  4.824992743e-007 -3.790274832e-007 -26.33349991
lhand  -4.385901518e-031 -36.37929916 -10.68710041
lfingers  90 7.125020027 -90
lthumb  94.57459891 -25.540752 100.5131587
rclavicle  0 -4.497500157e-015 -2.743230041e-014
rhumerus  -66.38259888 -31.29930115 -38.44679642
rradius  -5.16745672e-007 2.214343908e-008 76.18299866
rwrist  -0.0001011603963 0.007538665552 -175.6620026
rhand  -1.770005545e-031 4.060510159 -5.005809784
rfingers  -90 -7.125020027 -90
rthumb  -83.87027243 -10.69916081 -59.9519694
rfemur  -12.7785387 16.60591507 12.71364307
rtibia  -1.364654422 -1.599032998 21.3943882
rfoot  0.2727584541 -23.22240067 -34.60926437
rtoes  3.863158045 19.63836137 -101.3608614
lfemur  -8.015302658 -16.7021637 -20.67709351
ltibia  2.380617857 -1.874543309 15.21133423
lfoot  1.024103284 -21.94495583 38.66007233
ltoes  -8.568016355 -18.14006871 -115.8233677
